<svg width="42" height="42" viewBox="0 0 42 42" fill="none" xmlns="http://www.w3.org/2000/svg">
<g filter="url(#filter0_d_3_639)">
<circle cx="21" cy="20" r="20" fill="#C23785"/>
</g>
<g clip-path="url(#clip0_3_639)">
<path d="M21 10C23.717 10 24.056 10.01 25.122 10.06C26.187 10.11 26.912 10.277 27.55 10.525C28.21 10.779 28.766 11.123 29.322 11.678C29.8305 12.1779 30.224 12.7826 30.475 13.45C30.722 14.087 30.89 14.813 30.94 15.878C30.987 16.944 31 17.283 31 20C31 22.717 30.99 23.056 30.94 24.122C30.89 25.187 30.722 25.912 30.475 26.55C30.2247 27.2178 29.8311 27.8226 29.322 28.322C28.822 28.8303 28.2173 29.2238 27.55 29.475C26.913 29.722 26.187 29.89 25.122 29.94C24.056 29.987 23.717 30 21 30C18.283 30 17.944 29.99 16.878 29.94C15.813 29.89 15.088 29.722 14.45 29.475C13.7823 29.2245 13.1775 28.8309 12.678 28.322C12.1694 27.8222 11.7759 27.2175 11.525 26.55C11.277 25.913 11.11 25.187 11.06 24.122C11.013 23.056 11 22.717 11 20C11 17.283 11.01 16.944 11.06 15.878C11.11 14.812 11.277 14.088 11.525 13.45C11.7752 12.7822 12.1688 12.1773 12.678 11.678C13.1777 11.1692 13.7824 10.7757 14.45 10.525C15.088 10.277 15.812 10.11 16.878 10.06C17.944 10.013 18.283 10 21 10ZM21 15C19.6739 15 18.4021 15.5268 17.4645 16.4645C16.5268 17.4021 16 18.6739 16 20C16 21.3261 16.5268 22.5979 17.4645 23.5355C18.4021 24.4732 19.6739 25 21 25C22.3261 25 23.5979 24.4732 24.5355 23.5355C25.4732 22.5979 26 21.3261 26 20C26 18.6739 25.4732 17.4021 24.5355 16.4645C23.5979 15.5268 22.3261 15 21 15ZM27.5 14.75C27.5 14.4185 27.3683 14.1005 27.1339 13.8661C26.8995 13.6317 26.5815 13.5 26.25 13.5C25.9185 13.5 25.6005 13.6317 25.3661 13.8661C25.1317 14.1005 25 14.4185 25 14.75C25 15.0815 25.1317 15.3995 25.3661 15.6339C25.6005 15.8683 25.9185 16 26.25 16C26.5815 16 26.8995 15.8683 27.1339 15.6339C27.3683 15.3995 27.5 15.0815 27.5 14.75ZM21 17C21.7956 17 22.5587 17.3161 23.1213 17.8787C23.6839 18.4413 24 19.2044 24 20C24 20.7956 23.6839 21.5587 23.1213 22.1213C22.5587 22.6839 21.7956 23 21 23C20.2044 23 19.4413 22.6839 18.8787 22.1213C18.3161 21.5587 18 20.7956 18 20C18 19.2044 18.3161 18.4413 18.8787 17.8787C19.4413 17.3161 20.2044 17 21 17Z" fill="white"/>
</g>
<defs>
<filter id="filter0_d_3_639" x="0" y="0" width="42" height="42" filterUnits="userSpaceOnUse" color-interpolation-filters="sRGB">
<feFlood flood-opacity="0" result="BackgroundImageFix"/>
<feColorMatrix in="SourceAlpha" type="matrix" values="0 0 0 0 0 0 0 0 0 0 0 0 0 0 0 0 0 0 127 0" result="hardAlpha"/>
<feOffset dy="1"/>
<feGaussianBlur stdDeviation="0.5"/>
<feColorMatrix type="matrix" values="0 0 0 0 0 0 0 0 0 0 0 0 0 0 0 0 0 0 0.1 0"/>
<feBlend mode="normal" in2="BackgroundImageFix" result="effect1_dropShadow_3_639"/>
<feBlend mode="normal" in="SourceGraphic" in2="effect1_dropShadow_3_639" result="shape"/>
</filter>
<clipPath id="clip0_3_639">
<rect width="24" height="24" fill="white" transform="translate(9 8)"/>
</clipPath>
</defs>
</svg>
