<svg width="20" height="20" viewBox="0 0 14 14" fill="none" xmlns="http://www.w3.org/2000/svg">
<path d="M12.326 6.71466C12.2714 5.66527 11.9064 4.65573 11.2773 3.814C11.0857 4.02042 10.8808 4.21416 10.664 4.39399C9.99796 4.94723 9.25367 5.39879 8.45534 5.73399C8.56668 5.96733 8.66868 6.19333 8.75868 6.40666V6.40866C8.78407 6.46827 8.80852 6.52828 8.83201 6.58866C9.84134 6.47533 10.9053 6.51666 11.9367 6.656C12.074 6.67466 12.2033 6.69466 12.326 6.71466ZM6.06934 1.748C6.71903 2.66344 7.31815 3.61375 7.86401 4.59466C8.67934 4.27333 9.35334 3.868 9.89601 3.41666C10.0844 3.26142 10.2617 3.09323 10.4267 2.91333C9.46733 2.10647 8.25355 1.66488 7.00001 1.66666C6.68803 1.66645 6.37663 1.69344 6.06934 1.74733V1.748ZM1.83534 5.66466C2.28949 5.6532 2.74311 5.62585 3.19534 5.58266C4.28844 5.48489 5.37219 5.30166 6.43668 5.03466C5.88035 4.06814 5.27971 3.1278 4.63668 2.21666C3.94982 2.55693 3.34418 3.04093 2.86084 3.63585C2.3775 4.23077 2.02776 4.92269 1.83534 5.66466ZM2.85534 10.3567C3.11401 9.97866 3.45401 9.55333 3.90534 9.09066C4.87468 8.09733 6.01868 7.324 7.34268 6.89733L7.38401 6.88533C7.27401 6.64266 7.17068 6.426 7.06668 6.222C5.84268 6.57866 4.55334 6.80133 3.26868 6.91666C2.64201 6.97333 2.08001 6.998 1.66668 7.002C1.6655 8.22372 2.08554 9.40851 2.85601 10.3567H2.85534ZM9.00334 11.9433C8.74626 10.6468 8.38235 9.37382 7.91534 8.13733C6.58068 8.62199 5.51734 9.33066 4.69534 10.176C4.36361 10.5109 4.06922 10.8809 3.81734 11.2793C4.73655 11.9652 5.85313 12.335 7.00001 12.3333C7.68662 12.3343 8.36692 12.2023 9.00334 11.9447V11.9433ZM10.252 11.2267C11.2929 10.4265 12.0019 9.27047 12.2433 7.98C12.0167 7.92333 11.7293 7.86666 11.4133 7.82266C10.7108 7.72149 9.99787 7.71409 9.29334 7.80066C9.69005 8.91988 10.0103 10.0647 10.252 11.2273V11.2267ZM7.00001 13.6667C3.31801 13.6667 0.333344 10.682 0.333344 7C0.333344 3.318 3.31801 0.333328 7.00001 0.333328C10.682 0.333328 13.6667 3.318 13.6667 7C13.6667 10.682 10.682 13.6667 7.00001 13.6667Z" fill="white"/>
</svg>
