<svg width="24" height="18" viewBox="0 0 16 10" fill="none" xmlns="http://www.w3.org/2000/svg">
<path d="M4.96199 0.566681C5.38799 0.566681 5.78199 0.600014 6.14199 0.698681C6.46867 0.758711 6.78049 0.881901 7.05999 1.06135C7.32266 1.22601 7.51932 1.45735 7.64999 1.75401C7.78132 2.05068 7.84666 2.41401 7.84666 2.80935C7.84666 3.27135 7.74866 3.66668 7.51932 3.96335C7.32266 4.26068 6.99466 4.52401 6.60132 4.72201C7.15866 4.88735 7.58466 5.18401 7.84666 5.57935C8.10932 5.97535 8.27332 6.47001 8.27332 7.03068C8.27332 7.49268 8.17466 7.88801 8.01066 8.21801C7.84666 8.54801 7.58466 8.84468 7.28932 9.04268C6.96852 9.25492 6.61388 9.41093 6.24066 9.50401C5.84732 9.60335 5.45399 9.66935 5.06066 9.66935H0.666656V0.566681H4.96199ZM4.69932 4.26001C5.05999 4.26001 5.35532 4.16135 5.58466 3.99668C5.81399 3.83201 5.91266 3.53468 5.91266 3.17201C5.91266 2.97401 5.87932 2.77601 5.81399 2.64468C5.74866 2.51268 5.64999 2.41335 5.51932 2.31468C5.38799 2.24868 5.25666 2.18268 5.09266 2.15001C4.92866 2.11668 4.76532 2.11668 4.56799 2.11668H2.66666V4.26068H4.69999L4.69932 4.26001ZM4.79799 8.15201C4.99466 8.15201 5.19132 8.11868 5.35532 8.08601C5.52091 8.05453 5.67751 7.98692 5.81399 7.88801C5.94758 7.7915 6.05934 7.66793 6.14199 7.52535C6.20732 7.36068 6.27332 7.16268 6.27332 6.93201C6.27332 6.47001 6.14199 6.14001 5.87999 5.90935C5.61732 5.71135 5.25666 5.61268 4.83066 5.61268H2.66666V8.15268H4.79799V8.15201ZM11.126 8.11868C11.388 8.38268 11.7813 8.51468 12.306 8.51468C12.6667 8.51468 12.9947 8.41601 13.2567 8.25135C13.5193 8.05335 13.6833 7.85535 13.7487 7.65735H15.3553C15.0927 8.44868 14.6993 9.00935 14.1753 9.37201C13.65 9.70201 13.0273 9.90001 12.2733 9.90001C11.7909 9.90147 11.3125 9.81191 10.8633 9.63601C10.4591 9.48438 10.0987 9.23522 9.81399 8.91068C9.50952 8.60706 9.28446 8.23318 9.15866 7.82201C8.99466 7.39335 8.92866 6.93201 8.92866 6.40401C8.92866 5.90935 8.99466 5.44801 9.15866 5.01868C9.31634 4.60541 9.54965 4.22514 9.84666 3.89735C10.142 3.60068 10.5027 3.33735 10.896 3.17201C11.3338 2.99606 11.8015 2.90641 12.2733 2.90801C12.8307 2.90801 13.3227 3.00735 13.7487 3.23801C14.1753 3.46868 14.5027 3.73268 14.7653 4.12868C15.0333 4.50903 15.2329 4.93315 15.3553 5.38201C15.4207 5.84335 15.4533 6.30535 15.4207 6.83268H10.6667C10.6667 7.36068 10.8633 7.85535 11.126 8.11935V8.11868ZM13.1913 4.65601C12.962 4.42535 12.6013 4.29335 12.1747 4.29335C11.88 4.29335 11.65 4.35935 11.4533 4.45801C11.2567 4.55735 11.126 4.68935 10.9947 4.82135C10.874 4.94885 10.7941 5.10949 10.7653 5.28268C10.732 5.44801 10.6993 5.57935 10.6993 5.71135H13.65C13.5847 5.21668 13.4207 4.88735 13.1913 4.65601ZM10.306 1.19335H13.978V2.08401H10.3067V1.19335H10.306Z" fill="white"/>
</svg>
