<svg width="20" height="20" viewBox="0 0 14 14" fill="none" xmlns="http://www.w3.org/2000/svg">
<path d="M7.00001 0.333344C8.81134 0.333344 9.03734 0.34001 9.74801 0.373343C10.458 0.406677 10.9413 0.51801 11.3667 0.683344C11.8067 0.852677 12.1773 1.08201 12.548 1.45201C12.887 1.78527 13.1493 2.1884 13.3167 2.63334C13.4813 3.05801 13.5933 3.54201 13.6267 4.25201C13.658 4.96268 13.6667 5.18868 13.6667 7.00001C13.6667 8.81134 13.66 9.03734 13.6267 9.74801C13.5933 10.458 13.4813 10.9413 13.3167 11.3667C13.1498 11.8119 12.8874 12.2151 12.548 12.548C12.2147 12.8869 11.8115 13.1492 11.3667 13.3167C10.942 13.4813 10.458 13.5933 9.74801 13.6267C9.03734 13.658 8.81134 13.6667 7.00001 13.6667C5.18868 13.6667 4.96268 13.66 4.25201 13.6267C3.54201 13.5933 3.05868 13.4813 2.63334 13.3167C2.18823 13.1497 1.78503 12.8873 1.45201 12.548C1.11295 12.2148 0.850631 11.8117 0.683344 11.3667C0.51801 10.942 0.406677 10.458 0.373343 9.74801C0.34201 9.03734 0.333344 8.81134 0.333344 7.00001C0.333344 5.18868 0.34001 4.96268 0.373343 4.25201C0.406677 3.54134 0.51801 3.05868 0.683344 2.63334C0.850168 2.18813 1.11255 1.78489 1.45201 1.45201C1.78512 1.11283 2.1883 0.850496 2.63334 0.683344C3.05868 0.51801 3.54134 0.406677 4.25201 0.373343C4.96268 0.34201 5.18868 0.333344 7.00001 0.333344ZM7.00001 3.66668C6.11596 3.66668 5.26811 4.01787 4.64299 4.64299C4.01787 5.26811 3.66668 6.11596 3.66668 7.00001C3.66668 7.88407 4.01787 8.73191 4.64299 9.35703C5.26811 9.98215 6.11596 10.3333 7.00001 10.3333C7.88407 10.3333 8.73191 9.98215 9.35703 9.35703C9.98215 8.73191 10.3333 7.88407 10.3333 7.00001C10.3333 6.11596 9.98215 5.26811 9.35703 4.64299C8.73191 4.01787 7.88407 3.66668 7.00001 3.66668ZM11.3333 3.50001C11.3333 3.279 11.2455 3.06703 11.0893 2.91075C10.933 2.75447 10.721 2.66668 10.5 2.66668C10.279 2.66668 10.067 2.75447 9.91075 2.91075C9.75447 3.06703 9.66668 3.279 9.66668 3.50001C9.66668 3.72102 9.75447 3.93299 9.91075 4.08927C10.067 4.24555 10.279 4.33334 10.5 4.33334C10.721 4.33334 10.933 4.24555 11.0893 4.08927C11.2455 3.93299 11.3333 3.72102 11.3333 3.50001ZM7.00001 5.00001C7.53044 5.00001 8.03915 5.21072 8.41422 5.5858C8.7893 5.96087 9.00001 6.46958 9.00001 7.00001C9.00001 7.53044 8.7893 8.03915 8.41422 8.41422C8.03915 8.7893 7.53044 9.00001 7.00001 9.00001C6.46958 9.00001 5.96087 8.7893 5.5858 8.41422C5.21072 8.03915 5.00001 7.53044 5.00001 7.00001C5.00001 6.46958 5.21072 5.96087 5.5858 5.5858C5.96087 5.21072 6.46958 5.00001 7.00001 5.00001Z" fill="white"/>
</svg>
