<svg width="22" height="20" viewBox="0 0 14 12" fill="none" xmlns="http://www.w3.org/2000/svg">
<path d="M13.7747 1.77065C13.2657 1.99578 12.726 2.14363 12.1733 2.20932C12.7558 1.86094 13.1918 1.31266 13.4 0.666648C12.8533 0.991982 12.254 1.21998 11.6293 1.34331C11.2097 0.894368 10.6536 0.596624 10.0473 0.496371C9.44104 0.396119 8.81863 0.498976 8.27685 0.78895C7.73507 1.07892 7.30426 1.53977 7.05141 2.09984C6.79857 2.65992 6.73784 3.28784 6.87867 3.88598C5.77008 3.83042 4.68556 3.54233 3.69553 3.04042C2.7055 2.53852 1.83209 1.83401 1.132 0.972648C0.884198 1.39828 0.753975 1.88213 0.754671 2.37465C0.754671 3.34131 1.24667 4.19532 1.99467 4.69532C1.55201 4.68138 1.11909 4.56184 0.732005 4.34665V4.38131C0.732138 5.02512 0.954917 5.64906 1.36257 6.14736C1.77022 6.64565 2.33766 6.98763 2.96867 7.11532C2.55775 7.22667 2.12688 7.24309 1.70867 7.16331C1.88658 7.71747 2.23334 8.20211 2.7004 8.54939C3.16746 8.89666 3.73142 9.08918 4.31334 9.09998C3.73499 9.5542 3.07279 9.88997 2.36459 10.0881C1.65639 10.2862 0.91609 10.3428 0.186005 10.2546C1.46047 11.0743 2.94407 11.5094 4.45934 11.508C9.58801 11.508 12.3927 7.25932 12.3927 3.57465C12.3927 3.45465 12.3893 3.33331 12.384 3.21465C12.9299 2.82009 13.4011 2.33133 13.7753 1.77131L13.7747 1.77065Z" fill="white"/>
</svg>
