<svg width="22" height="20" viewBox="0 0 14 12" fill="none" xmlns="http://www.w3.org/2000/svg">
<path d="M13.362 2.33199C13.6667 3.51999 13.6667 5.99999 13.6667 5.99999C13.6667 5.99999 13.6667 8.47999 13.362 9.66799C13.1927 10.3247 12.6973 10.8413 12.07 11.016C10.9307 11.3333 7.00001 11.3333 7.00001 11.3333C7.00001 11.3333 3.07134 11.3333 1.93001 11.016C1.30001 10.8387 0.805344 10.3227 0.63801 9.66799C0.333344 8.47999 0.333344 5.99999 0.333344 5.99999C0.333344 5.99999 0.333344 3.51999 0.63801 2.33199C0.807344 1.67532 1.30268 1.15866 1.93001 0.98399C3.07134 0.666656 7.00001 0.666656 7.00001 0.666656C7.00001 0.666656 10.9307 0.666656 12.07 0.98399C12.7 1.16132 13.1947 1.67732 13.362 2.33199ZM5.66668 8.33332L9.66668 5.99999L5.66668 3.66666V8.33332Z" fill="white"/>
</svg>
